<?xml version="1.0" standalone="no"?>
<!DOCTYPE svg PUBLIC "-//W3C//DTD SVG 20010904//EN"
 "http://www.w3.org/TR/2001/REC-SVG-20010904/DTD/svg10.dtd">
<svg version="1.0" xmlns="http://www.w3.org/2000/svg"
 width="128.000000pt" height="128.000000pt" viewBox="0 0 128.000000 128.000000"
 preserveAspectRatio="xMidYMid meet">

<g transform="translate(0.000000,128.000000) scale(0.100000,-0.100000)"
fill="#000000" stroke="none">
<path d="M496 1229 c-14 -17 -26 -37 -26 -45 0 -11 -24 -14 -125 -14 -120 0
-127 -1 -150 -25 -14 -13 -25 -36 -25 -50 l0 -25 470 0 470 0 0 25 c0 14 -11
37 -25 50 -23 24 -30 25 -148 25 -121 0 -125 1 -131 23 -3 12 -15 32 -26 45
-19 20 -30 22 -140 22 l-118 0 -26 -31z"/>
<path d="M226 998 c2 -18 18 -220 35 -448 33 -454 35 -464 99 -507 32 -22 40
-23 280 -23 240 0 248 1 281 23 63 41 65 54 98 502 17 226 33 427 35 448 l4
37 -418 0 -419 0 5 -32z m212 -101 c10 -12 43 -759 34 -784 -6 -20 -50 -16
-56 5 -9 30 -40 758 -33 775 8 20 40 22 55 4z m231 -6 c7 -12 8 -152 3 -402
l-7 -384 -25 0 -25 0 -7 385 c-3 234 -2 392 3 402 13 24 46 23 58 -1z m228 2
c7 -18 -26 -758 -34 -780 -7 -17 -50 -17 -55 0 -8 25 24 772 34 785 15 17 48
15 55 -5z"/>
</g>
</svg>
